<svg width="89" height="36" viewBox="0 0 89 36" fill="none" xmlns="http://www.w3.org/2000/svg">
<g opacity="0.4" clip-path="url(#clip0_100_569)">
<path d="M43.1868 3.79639H46.1034C48.8377 3.79639 50.7745 5.39222 50.7745 7.65112C50.7745 9.91002 48.8377 11.5171 46.1034 11.5171H43.1868V3.79639ZM46.468 9.53916C47.6528 9.53916 48.4959 8.75247 48.4959 7.65112C48.4959 6.54977 47.6528 5.77433 46.468 5.77433H45.397V9.53916H46.468Z" fill="white"/>
<path d="M51.8911 3.79639H54.1013V11.5171H51.8911V3.79639Z" fill="white"/>
<path d="M59.0915 6.99939H62.76V10.281C61.9511 11.1463 60.7548 11.652 59.5244 11.652C57.1774 11.652 55.2064 9.82021 55.2064 7.65122C55.2064 5.48222 57.1774 3.66162 59.5244 3.66162C60.7548 3.66162 61.9511 4.16734 62.76 5.02145L61.1308 6.42624C60.7435 5.93176 60.151 5.63956 59.5244 5.63956C58.4193 5.63956 57.485 6.5611 57.485 7.65122C57.485 8.74133 58.4193 9.67411 59.5244 9.67411C59.9118 9.67411 60.2877 9.56173 60.6181 9.35944V8.60647H59.0915V6.99939Z" fill="white"/>
<path d="M63.9905 3.79639H66.2007V11.5171H63.9905V3.79639Z" fill="white"/>
<path d="M69.4933 5.74061H67.1805V3.79639H74.0164V5.74061H71.7036V11.5171H69.4933V5.74061Z" fill="white"/>
<path d="M79.4395 10.4832H76.7165L76.3178 11.5171H73.8227L76.8305 3.79639H79.3255L82.3333 11.5171H79.8382L79.4395 10.4832ZM78.8129 8.8761L78.0837 6.9993L77.3432 8.8761H78.8129Z" fill="white"/>
<path d="M88.8844 9.57287V11.5171H83.0283V3.79639H85.2386V9.57287H88.8844Z" fill="white"/>
<path d="M42.5943 20.7195L43.8247 19.2698C44.6223 19.8879 45.4881 20.2138 46.411 20.2138C47.0148 20.2138 47.3338 20.0115 47.3338 19.6743C47.3338 19.3035 47.0604 19.2473 45.978 19C44.2805 18.6179 42.9703 18.1796 42.9703 16.5726C42.9703 14.9655 44.2007 14.0327 46.0578 14.0327C47.4136 14.0327 48.4731 14.3923 49.339 15.0779L48.2339 16.6175C47.5047 16.1006 46.7072 15.8421 46.0008 15.8421C45.4654 15.8421 45.2033 16.0556 45.2033 16.3478C45.2033 16.7411 45.4767 16.8648 46.5933 17.1008C48.4162 17.4829 49.5555 17.9661 49.5555 19.4383C49.5555 21.0679 48.2908 22.0231 46.3312 22.0231C44.9185 22.0231 43.5855 21.5848 42.5943 20.7195Z" fill="white"/>
<path d="M52.7569 16.1117V16.9771H56.4824V18.9213H52.7569V19.944H56.847V21.8882H50.5466V14.1675H56.847V16.1117H52.7569Z" fill="white"/>
<path d="M60.1738 16.1117V16.9771H63.8993V18.9213H60.1738V19.944H64.2639V21.8882H57.9636V14.1675H64.2639V16.1117H60.1738Z" fill="white"/>
<path d="M65.3804 14.1675H68.2971C71.0314 14.1675 72.9682 15.7633 72.9682 18.0222C72.9682 20.2811 71.0314 21.8882 68.2971 21.8882H65.3804V14.1675ZM68.6616 19.9102C69.8465 19.9102 70.6896 19.1236 70.6896 18.0222C70.6896 16.9209 69.8465 16.1454 68.6616 16.1454H67.5907V19.9102H68.6616Z" fill="white"/>
<path d="M42.5943 31.0344L43.8247 29.5847C44.6223 30.2028 45.4881 30.5287 46.411 30.5287C47.0148 30.5287 47.3338 30.3264 47.3338 29.9893C47.3338 29.6184 47.0604 29.5622 45.978 29.315C44.2805 28.9329 42.9703 28.4946 42.9703 26.8875C42.9703 25.2804 44.2007 24.3477 46.0578 24.3477C47.4136 24.3477 48.4731 24.7073 49.339 25.3928L48.2339 26.9325C47.5047 26.4155 46.7072 26.157 46.0008 26.157C45.4654 26.157 45.2033 26.3705 45.2033 26.6627C45.2033 27.0561 45.4767 27.1797 46.5933 27.4157C48.4162 27.7978 49.5555 28.2811 49.5555 29.7533C49.5555 31.3828 48.2908 32.3381 46.3312 32.3381C44.9185 32.3381 43.5855 31.8998 42.5943 31.0344Z" fill="white"/>
<path d="M52.4379 26.4266H50.1251V24.4824H56.961V26.4266H54.6482V32.2031H52.4379V26.4266Z" fill="white"/>
<path d="M57.8268 28.7754V24.4824H60.0371V28.6631C60.0371 29.652 60.6637 30.36 61.5524 30.36C62.441 30.36 63.0677 29.652 63.0677 28.6631V24.4824H65.2779V28.7754C65.2779 30.8658 63.7398 32.338 61.5524 32.338C59.3649 32.338 57.8268 30.8658 57.8268 28.7754Z" fill="white"/>
<path d="M66.5653 24.4824H69.4819C72.2163 24.4824 74.1531 26.0783 74.1531 28.3372C74.1531 30.5961 72.2163 32.2031 69.4819 32.2031H66.5653V24.4824ZM69.8465 30.2252C71.0314 30.2252 71.8745 29.4385 71.8745 28.3372C71.8745 27.2358 71.0314 26.4604 69.8465 26.4604H68.7756V30.2252H69.8465Z" fill="white"/>
<path d="M75.2696 24.4824H77.4798V32.2031H75.2696V24.4824Z" fill="white"/>
<path d="M78.585 28.3372C78.585 26.1683 80.5332 24.3477 82.846 24.3477C85.1588 24.3477 87.107 26.1683 87.107 28.3372C87.107 30.5062 85.1588 32.3381 82.846 32.3381C80.5332 32.3381 78.585 30.5062 78.585 28.3372ZM84.8284 28.3372C84.8284 27.2471 83.9169 26.3256 82.846 26.3256C81.775 26.3256 80.8636 27.2471 80.8636 28.3372C80.8636 29.4274 81.775 30.3601 82.846 30.3601C83.9169 30.3601 84.8284 29.4386 84.8284 28.3372Z" fill="white"/>
<path d="M28.2447 8.20039C26.7617 8.20039 25.2939 8.47573 23.9229 9.01891C22.5539 9.56022 21.3082 10.3544 20.2601 11.3565L19.8727 11.7273L19.7854 11.201C19.3277 8.46262 17.8637 5.96959 15.6573 4.16772C13.4489 2.36584 10.6405 1.375 7.7372 1.375H0.884277V6.21496C0.884277 9.30549 2.1679 12.2724 4.4541 14.462C6.74221 16.6516 9.84682 17.8822 13.0843 17.8822H16.9352V29.4127C15.7484 29.9671 14.9262 31.1583 14.9262 32.5388C14.9262 34.4512 16.4985 36.0021 18.4372 36.0021C20.3759 36.0021 21.9481 34.4512 21.9481 32.5388C21.9481 31.1565 21.1259 29.9671 19.9373 29.4127V23.0012H24.6787C27.6808 23.0012 30.5575 21.8605 32.6785 19.832C34.7976 17.8035 35.9882 15.0539 35.9882 12.19V8.20226H28.2466L28.2447 8.20039ZM16.6523 15.0258H13.0862C10.6481 15.0258 8.30875 14.0986 6.58461 12.4485C4.85856 10.7964 3.88635 8.5544 3.88635 6.21496V4.22953H7.7372C10.1753 4.22953 12.5147 5.15669 14.2407 6.80684C15.9668 8.45887 16.939 10.7009 16.939 13.0403V15.0258H16.6561H16.6523ZM32.9861 11.334V12.1881C32.9861 14.3009 32.1089 16.3275 30.5499 17.8185C28.991 19.3094 26.8794 20.1467 24.6787 20.1467H19.9373V19.0135C19.9373 16.9007 20.8145 14.8741 22.3735 13.3831C23.9324 11.8922 26.044 11.0549 28.2447 11.0549H32.9861V11.334Z" fill="white"/>
<path d="M16.9979 2.56608C17.0985 2.64849 17.1915 2.73465 17.2903 2.81894C17.6681 2.78897 18.0498 2.77024 18.4372 2.77024C21.9823 2.77024 25.2331 4.03642 27.751 6.13236C27.9105 6.12674 28.07 6.12112 28.2314 6.12112H31.6968C28.5276 2.38065 23.7634 0 18.4353 0C16.844 0 15.306 0.217274 13.8439 0.612487C14.9718 1.12383 16.0351 1.77752 16.9979 2.5642V2.56608Z" fill="white"/>
<path d="M34.1444 21.3209C33.3165 22.1132 32.3975 22.7875 31.4139 23.3381C29.8378 26.483 27.1206 28.976 23.7995 30.289C24.0976 30.9802 24.2628 31.7406 24.2628 32.5386C24.2628 32.7259 24.2533 32.9113 24.2343 33.093C30.0638 31.0439 34.4501 25.9922 35.4793 19.8262C35.0767 20.3544 34.6305 20.8563 34.1444 21.3209Z" fill="white"/>
<path d="M3.96989 17.039C3.96989 16.9622 3.97369 16.8873 3.97559 16.8105C3.63569 16.5389 3.30529 16.2542 2.98819 15.9508C2.40714 15.3945 1.88306 14.7895 1.41405 14.1489C1.25074 15.0892 1.1615 16.0538 1.1615 17.039C1.1615 24.4432 5.95038 30.7404 12.6362 33.0911C12.6191 32.9075 12.6077 32.724 12.6077 32.5366C12.6077 31.7387 12.7729 30.9783 13.071 30.2871C7.74289 28.1799 3.96799 23.0384 3.96799 17.039H3.96989Z" fill="white"/>
</g>
<defs>
<clipPath id="clip0_100_569">
<rect width="88" height="36" fill="white" transform="translate(0.884277)"/>
</clipPath>
</defs>
</svg>
