<svg width="224" height="31" viewBox="0 0 224 31" fill="none" xmlns="http://www.w3.org/2000/svg">
<path d="M21.8867 12.3242V22.8359C21.4531 23.3164 20.7852 23.832 19.8828 24.3828C18.9922 24.9219 17.8672 25.3848 16.5078 25.7715C15.1484 26.1582 13.5488 26.3516 11.709 26.3516C10.0098 26.3516 8.46875 26.082 7.08594 25.543C5.70312 24.9922 4.51367 24.1895 3.51758 23.1348C2.5332 22.0684 1.77148 20.7676 1.23242 19.2324C0.705078 17.6855 0.441406 15.916 0.441406 13.9238V12.5C0.441406 10.5078 0.710938 8.73828 1.25 7.19141C1.78906 5.64453 2.54492 4.34375 3.51758 3.28906C4.50195 2.22266 5.65625 1.41406 6.98047 0.863281C8.31641 0.3125 9.78125 0.0371094 11.375 0.0371094C13.7305 0.0371094 15.6465 0.412109 17.123 1.16211C18.5996 1.90039 19.7188 2.92578 20.4805 4.23828C21.2422 5.53906 21.7051 7.04492 21.8691 8.75586H15.9453C15.8281 7.91211 15.6055 7.19727 15.2773 6.61133C14.9609 6.01367 14.5039 5.5625 13.9062 5.25781C13.3086 4.94141 12.5352 4.7832 11.5859 4.7832C10.8477 4.7832 10.1738 4.94141 9.56445 5.25781C8.9668 5.57422 8.45703 6.05469 8.03516 6.69922C7.61328 7.33203 7.28516 8.12891 7.05078 9.08984C6.82812 10.0508 6.7168 11.1758 6.7168 12.4648V13.9238C6.7168 15.2012 6.82227 16.3203 7.0332 17.2812C7.25586 18.2422 7.58398 19.0449 8.01758 19.6895C8.46289 20.3223 9.02539 20.8027 9.70508 21.1309C10.3965 21.4473 11.2109 21.6055 12.1484 21.6055C12.8047 21.6055 13.3672 21.5527 13.8359 21.4473C14.3047 21.3301 14.6914 21.1895 14.9961 21.0254C15.3125 20.8496 15.5527 20.6855 15.7168 20.5332V16.5605H11.4277V12.3242H21.8867ZM45.793 0.40625V26H39.623V0.40625H45.793ZM53.4922 0.40625V5.16992H32.0996V0.40625H53.4922ZM73.7246 21.2539V26H60.084V21.2539H73.7246ZM62.2812 0.40625V26H56.1113V0.40625H62.2812ZM71.9668 10.5664V15.1543H60.084V10.5664H71.9668ZM73.7773 0.40625V5.16992H60.084V0.40625H73.7773ZM90.5293 21.7812L97.666 27.4414L93.834 30.6758L86.8203 25.0156L90.5293 21.7812ZM97.9648 12.6934V13.7305C97.9648 15.6875 97.6895 17.4453 97.1387 19.0039C96.5996 20.5508 95.8262 21.875 94.8184 22.9766C93.8223 24.0664 92.6445 24.9043 91.2852 25.4902C89.9258 26.0645 88.4258 26.3516 86.7852 26.3516C85.1328 26.3516 83.6211 26.0645 82.25 25.4902C80.8906 24.9043 79.707 24.0664 78.6992 22.9766C77.7031 21.875 76.9297 20.5508 76.3789 19.0039C75.8398 17.4453 75.5703 15.6875 75.5703 13.7305V12.6934C75.5703 10.7363 75.8398 8.97852 76.3789 7.41992C76.9297 5.86133 77.6973 4.53711 78.6816 3.44727C79.6777 2.3457 80.8555 1.50781 82.2148 0.933594C83.5859 0.347656 85.0977 0.0546875 86.75 0.0546875C88.3906 0.0546875 89.8906 0.347656 91.25 0.933594C92.6211 1.50781 93.8047 2.3457 94.8008 3.44727C95.8086 4.53711 96.5879 5.86133 97.1387 7.41992C97.6895 8.97852 97.9648 10.7363 97.9648 12.6934ZM91.6895 13.7305V12.6582C91.6895 11.3926 91.5781 10.2793 91.3555 9.31836C91.1445 8.3457 90.8281 7.53125 90.4062 6.875C89.9844 6.21875 89.4629 5.72656 88.8418 5.39844C88.2324 5.05859 87.5352 4.88867 86.75 4.88867C85.9297 4.88867 85.2148 5.05859 84.6055 5.39844C83.9961 5.72656 83.4863 6.21875 83.0762 6.875C82.666 7.53125 82.3555 8.3457 82.1445 9.31836C81.9453 10.2793 81.8457 11.3926 81.8457 12.6582V13.7305C81.8457 14.9844 81.9453 16.0977 82.1445 17.0703C82.3555 18.0312 82.666 18.8457 83.0762 19.5137C83.498 20.1816 84.0137 20.6855 84.623 21.0254C85.2441 21.3652 85.9648 21.5352 86.7852 21.5352C87.5703 21.5352 88.2676 21.3652 88.877 21.0254C89.4863 20.6855 89.9961 20.1816 90.4062 19.5137C90.8281 18.8457 91.1445 18.0312 91.3555 17.0703C91.5781 16.0977 91.6895 14.9844 91.6895 13.7305ZM123.26 19.1973C123.26 18.7988 123.201 18.4414 123.084 18.125C122.967 17.7969 122.75 17.4922 122.434 17.2109C122.117 16.9297 121.66 16.6484 121.062 16.3672C120.477 16.0742 119.703 15.7695 118.742 15.4531C117.617 15.0781 116.533 14.6562 115.49 14.1875C114.447 13.707 113.516 13.1504 112.695 12.5176C111.875 11.873 111.225 11.123 110.744 10.2676C110.264 9.40039 110.023 8.39258 110.023 7.24414C110.023 6.14258 110.27 5.15234 110.762 4.27344C111.254 3.38281 111.939 2.62695 112.818 2.00586C113.709 1.37305 114.752 0.892578 115.947 0.564453C117.143 0.224609 118.449 0.0546875 119.867 0.0546875C121.742 0.0546875 123.395 0.382813 124.824 1.03906C126.266 1.68359 127.391 2.60352 128.199 3.79883C129.02 4.98242 129.43 6.38281 129.43 8H123.295C123.295 7.35547 123.16 6.78711 122.891 6.29492C122.633 5.80273 122.24 5.41602 121.713 5.13477C121.186 4.85352 120.523 4.71289 119.727 4.71289C118.953 4.71289 118.303 4.83008 117.775 5.06445C117.248 5.29883 116.85 5.61523 116.58 6.01367C116.311 6.40039 116.176 6.82812 116.176 7.29688C116.176 7.68359 116.281 8.03516 116.492 8.35156C116.715 8.65625 117.025 8.94336 117.424 9.21289C117.834 9.48242 118.326 9.74023 118.9 9.98633C119.486 10.2324 120.143 10.4727 120.869 10.707C122.229 11.1406 123.436 11.627 124.49 12.166C125.557 12.6934 126.453 13.2969 127.18 13.9766C127.918 14.6445 128.475 15.4062 128.85 16.2617C129.236 17.1172 129.43 18.084 129.43 19.1621C129.43 20.3105 129.207 21.3301 128.762 22.2207C128.316 23.1113 127.678 23.8672 126.846 24.4883C126.014 25.0977 125.018 25.5605 123.857 25.877C122.697 26.1934 121.402 26.3516 119.973 26.3516C118.66 26.3516 117.365 26.1875 116.088 25.8594C114.822 25.5195 113.674 25.0039 112.643 24.3125C111.611 23.6094 110.785 22.7129 110.164 21.623C109.555 20.5215 109.25 19.2148 109.25 17.7031H115.438C115.438 18.4531 115.537 19.0859 115.736 19.6016C115.936 20.1172 116.229 20.5332 116.615 20.8496C117.002 21.1543 117.477 21.377 118.039 21.5176C118.602 21.6465 119.246 21.7109 119.973 21.7109C120.758 21.7109 121.391 21.5996 121.871 21.377C122.352 21.1426 122.703 20.8379 122.926 20.4629C123.148 20.0762 123.26 19.6543 123.26 19.1973ZM142.824 17.3164H136.461V12.5527H142.824C143.691 12.5527 144.395 12.4062 144.934 12.1133C145.473 11.8203 145.865 11.416 146.111 10.9004C146.369 10.373 146.498 9.78125 146.498 9.125C146.498 8.42188 146.369 7.77148 146.111 7.17383C145.865 6.57617 145.473 6.0957 144.934 5.73242C144.395 5.35742 143.691 5.16992 142.824 5.16992H138.781V26H132.611V0.40625H142.824C144.875 0.40625 146.639 0.78125 148.115 1.53125C149.604 2.28125 150.746 3.3125 151.543 4.625C152.34 5.92578 152.738 7.41406 152.738 9.08984C152.738 10.7422 152.34 12.1836 151.543 13.4141C150.746 14.6445 149.604 15.6055 148.115 16.2969C146.639 16.9766 144.875 17.3164 142.824 17.3164ZM177.717 12.6934V13.7305C177.717 15.6875 177.441 17.4453 176.891 19.0039C176.352 20.5508 175.584 21.875 174.588 22.9766C173.592 24.0664 172.414 24.9043 171.055 25.4902C169.695 26.0645 168.195 26.3516 166.555 26.3516C164.902 26.3516 163.391 26.0645 162.02 25.4902C160.66 24.9043 159.477 24.0664 158.469 22.9766C157.473 21.875 156.699 20.5508 156.148 19.0039C155.609 17.4453 155.34 15.6875 155.34 13.7305V12.6934C155.34 10.7363 155.609 8.97852 156.148 7.41992C156.699 5.86133 157.467 4.53711 158.451 3.44727C159.447 2.3457 160.625 1.50781 161.984 0.933594C163.355 0.347656 164.867 0.0546875 166.52 0.0546875C168.16 0.0546875 169.66 0.347656 171.02 0.933594C172.391 1.50781 173.574 2.3457 174.57 3.44727C175.566 4.53711 176.34 5.86133 176.891 7.41992C177.441 8.97852 177.717 10.7363 177.717 12.6934ZM171.459 13.7305V12.6582C171.459 11.3926 171.348 10.2793 171.125 9.31836C170.914 8.3457 170.598 7.53125 170.176 6.875C169.754 6.21875 169.232 5.72656 168.611 5.39844C168.002 5.05859 167.305 4.88867 166.52 4.88867C165.699 4.88867 164.984 5.05859 164.375 5.39844C163.766 5.72656 163.256 6.21875 162.846 6.875C162.436 7.53125 162.125 8.3457 161.914 9.31836C161.715 10.2793 161.615 11.3926 161.615 12.6582V13.7305C161.615 14.9844 161.715 16.0977 161.914 17.0703C162.125 18.0312 162.436 18.8457 162.846 19.5137C163.268 20.1816 163.783 20.6855 164.393 21.0254C165.014 21.3652 165.734 21.5352 166.555 21.5352C167.34 21.5352 168.037 21.3652 168.646 21.0254C169.256 20.6855 169.766 20.1816 170.176 19.5137C170.598 18.8457 170.914 18.0312 171.125 17.0703C171.348 16.0977 171.459 14.9844 171.459 13.7305ZM180.916 0.40625H190.988C192.957 0.40625 194.668 0.699219 196.121 1.28516C197.574 1.87109 198.693 2.73828 199.479 3.88672C200.275 5.03516 200.674 6.45312 200.674 8.14062C200.674 9.60547 200.445 10.8301 199.988 11.8145C199.531 12.7988 198.893 13.6133 198.072 14.2578C197.264 14.8906 196.32 15.4121 195.242 15.8223L193.221 16.9648H184.766L184.73 12.2012H190.988C191.773 12.2012 192.424 12.0605 192.939 11.7793C193.455 11.498 193.842 11.0996 194.1 10.584C194.369 10.0566 194.504 9.42969 194.504 8.70312C194.504 7.96484 194.369 7.33203 194.1 6.80469C193.83 6.27734 193.432 5.87305 192.904 5.5918C192.389 5.31055 191.75 5.16992 190.988 5.16992H187.086V26H180.916V0.40625ZM194.926 26L189.266 14.6797L195.805 14.6445L201.535 25.7363V26H194.926ZM215.914 0.40625V26H209.744V0.40625H215.914ZM223.613 0.40625V5.16992H202.221V0.40625H223.613Z" fill="#FF5D19"/>
</svg>
