<svg width="289" height="75" viewBox="0 0 289 75" fill="none" xmlns="http://www.w3.org/2000/svg">
<path d="M0 10C0 4.47715 4.47715 0 10 0H289V75H9.99999C4.47714 75 0 70.5229 0 65V10Z" fill="white"/>
<g clip-path="url(#clip0_19_323)">
<path d="M41.3624 62.7764V59.798C41.3624 58.6561 40.678 57.9116 39.5048 57.9116C38.9183 57.9116 38.2829 58.1102 37.8429 58.7556C37.5009 58.2095 37.0122 57.9116 36.279 57.9116C35.79 57.9116 35.3015 58.0604 34.9103 58.6065V58.0109H33.8839V62.7764H34.9103V60.1454C34.9103 59.3017 35.3503 58.9044 36.0347 58.9044C36.7187 58.9044 37.0612 59.3512 37.0612 60.1454V62.7764H38.0876V60.1454C38.0876 59.3017 38.5761 58.9044 39.2116 58.9044C39.896 58.9044 40.238 59.3512 40.238 60.1454V62.7764H41.3624ZM56.5634 58.0109H54.9017V56.5714H53.8753V58.0109H52.9466V58.9539H53.875V61.1383C53.875 62.2305 54.315 62.8757 55.4882 62.8757C55.9282 62.8757 56.4167 62.7269 56.7591 62.5283L56.4656 61.6347C56.1724 61.8332 55.8304 61.8829 55.5859 61.8829C55.0972 61.8829 54.9017 61.5851 54.9017 61.0886V58.9539H56.5634V58.0109ZM65.2639 57.9114C64.6774 57.9114 64.2864 58.2095 64.042 58.6065V58.0109H63.0155V62.7764H64.042V60.0958C64.042 59.3017 64.384 58.8548 65.0194 58.8548C65.2149 58.8548 65.4594 58.9046 65.6549 58.9541L65.9481 57.9614C65.7526 57.9116 65.4594 57.9116 65.2639 57.9116M52.1156 58.4082C51.6267 58.0607 50.9424 57.9119 50.2092 57.9119C49.0363 57.9119 48.2543 58.5075 48.2543 59.4507C48.2543 60.2451 48.8408 60.6917 49.8672 60.8407L50.356 60.8905C50.8937 60.9895 51.1869 61.1385 51.1869 61.3868C51.1869 61.7342 50.7959 61.9824 50.1115 61.9824C49.427 61.9824 48.8895 61.7342 48.5473 61.4861L48.0586 62.2803C48.5963 62.6773 49.3295 62.8759 50.0625 62.8759C51.4312 62.8759 52.2134 62.2307 52.2134 61.3371C52.2134 60.4931 51.5779 60.0463 50.6002 59.8975L50.1115 59.8478C49.6715 59.798 49.3295 59.699 49.3295 59.4012C49.3295 59.0536 49.6715 58.8551 50.2092 58.8551C50.7959 58.8551 51.3824 59.1031 51.6756 59.2521L52.1156 58.4082ZM79.3899 57.9119C78.8032 57.9119 78.4122 58.2097 78.1677 58.6068V58.0111H77.1413V62.7766H78.1677V60.0961C78.1677 59.3019 78.51 58.8551 79.1452 58.8551C79.3409 58.8551 79.5854 58.9048 79.7809 58.9543L80.0741 57.9616C79.8786 57.9119 79.5854 57.9119 79.3899 57.9119ZM66.2904 60.3939C66.2904 61.8334 67.2678 62.8759 68.7832 62.8759C69.4674 62.8759 69.9562 62.7271 70.4449 62.33L69.9562 61.4861C69.5652 61.7839 69.1742 61.9327 68.7342 61.9327C67.9033 61.9327 67.3168 61.3371 67.3168 60.3939C67.3168 59.5004 67.9033 58.9046 68.7342 58.8551C69.1742 58.8551 69.5652 59.0039 69.9562 59.3019L70.4449 58.458C69.9562 58.0607 69.4674 57.9119 68.7832 57.9119C67.2678 57.9119 66.2904 58.9543 66.2904 60.3939ZM75.7728 60.3939V58.0111H74.7464V58.6068C74.4042 58.1602 73.9154 57.9119 73.28 57.9119C71.9603 57.9119 70.9339 58.9543 70.9339 60.3939C70.9339 61.8334 71.9603 62.8759 73.28 62.8759C73.9642 62.8759 74.4532 62.6278 74.7464 62.181V62.7766H75.7728V60.3939ZM72.0091 60.3939C72.0091 59.55 72.5468 58.8551 73.4265 58.8551C74.2574 58.8551 74.8441 59.5004 74.8441 60.3939C74.8441 61.2378 74.2574 61.9327 73.4265 61.9327C72.5468 61.8829 72.0091 61.2378 72.0091 60.3939ZM59.7407 57.9119C58.372 57.9119 57.3943 58.9046 57.3943 60.3939C57.3943 61.8832 58.3718 62.8759 59.7895 62.8759C60.4737 62.8759 61.1581 62.6773 61.6958 62.2307L61.2069 61.4861C60.8159 61.7839 60.3272 61.9824 59.8384 61.9824C59.203 61.9824 58.5675 61.6846 58.4208 60.8405H61.8913V60.4436C61.9403 58.9046 61.0606 57.9119 59.7407 57.9119ZM59.7405 58.8053C60.3757 58.8053 60.8159 59.2026 60.9134 59.9473H58.4696C58.5673 59.3019 59.0073 58.8053 59.7405 58.8053ZM85.2061 60.3939V56.1248H84.1797V58.6068C83.8374 58.1602 83.3487 57.9119 82.7133 57.9119C81.3936 57.9119 80.3671 58.9543 80.3671 60.3939C80.3671 61.8334 81.3936 62.8759 82.7133 62.8759C83.3977 62.8759 83.8864 62.6278 84.1797 62.181V62.7766H85.2061V60.3939ZM81.4426 60.3939C81.4426 59.55 81.98 58.8551 82.86 58.8551C83.6909 58.8551 84.2774 59.5004 84.2774 60.3939C84.2774 61.2378 83.6909 61.9327 82.86 61.9327C81.98 61.8829 81.4426 61.2378 81.4426 60.3939ZM47.1297 60.3939V58.0111H46.1032V58.6068C45.761 58.1602 45.2723 57.9119 44.6368 57.9119C43.3171 57.9119 42.2907 58.9543 42.2907 60.3939C42.2907 61.8334 43.3171 62.8759 44.6368 62.8759C45.3213 62.8759 45.81 62.6278 46.1032 62.181V62.7766H47.1297V60.3939ZM43.3171 60.3939C43.3171 59.55 43.8548 58.8551 44.7346 58.8551C45.5655 58.8551 46.1522 59.5004 46.1522 60.3939C46.1522 61.2378 45.5655 61.9327 44.7346 61.9327C43.8548 61.8829 43.3171 61.2378 43.3171 60.3939Z" fill="black"/>
<path d="M51.7734 21.8223H67.1701V49.9192H51.7734V21.8223Z" fill="#FF5F00"/>
<path d="M52.7511 35.8709C52.7511 30.1622 55.3904 25.0987 59.4472 21.8223C56.4659 19.4395 52.7023 18 48.5965 18C38.8693 18 31 25.9921 31 35.8709C31 45.7496 38.8693 53.7418 48.5963 53.7418C52.7021 53.7418 56.4656 52.3022 59.4472 49.9192C55.3904 46.6926 52.7511 41.5795 52.7511 35.8709Z" fill="#EB001B"/>
<path d="M87.9434 35.8709C87.9434 45.7494 80.0741 53.7418 70.3471 53.7418C66.2414 53.7418 62.4778 52.3022 59.4962 49.9192C63.602 46.6431 66.1926 41.5795 66.1926 35.8709C66.1926 30.1622 63.553 25.0987 59.4962 21.8223C62.4776 19.4395 66.2414 18 70.3471 18C80.0741 18 87.9434 26.0419 87.9434 35.8709Z" fill="#F79E1B"/>
</g>
<g clip-path="url(#clip1_19_323)">
<path d="M150.615 23.4482L140.403 47.9968H133.74L128.715 28.4047C128.41 27.2009 128.145 26.7579 127.218 26.2489C125.703 25.4193 123.2 24.6435 121 24.1608L121.148 23.4482H131.875C133.24 23.4482 134.469 24.3641 134.781 25.9498L137.437 40.1564L143.992 23.4482H150.615ZM159.621 23.4482L154.41 47.9968H148.107L153.319 23.4482H159.621ZM176.719 39.9818C176.745 33.504 167.83 33.1445 167.888 30.2502C167.91 29.3703 168.741 28.4336 170.562 28.1941C171.464 28.0765 173.956 27.9829 176.778 29.2932L177.882 24.0844C176.366 23.5318 174.414 23 171.987 23C165.756 23 161.373 26.3348 161.338 31.1139C161.297 34.6489 164.469 36.619 166.854 37.7964C169.311 38.9987 170.135 39.7714 170.123 40.846C170.106 42.4932 168.161 43.2223 166.353 43.2493C163.183 43.3 161.346 42.386 159.88 41.698L158.736 47.0794C160.211 47.7604 162.928 48.352 165.743 48.3821C172.367 48.3821 176.7 45.0853 176.719 39.9818ZM193.172 47.9971H199L193.909 23.4482H188.532C187.319 23.4482 186.3 24.1575 185.848 25.2477L176.39 47.9968H183.009L184.322 44.3297H192.408L193.172 47.9971ZM186.137 39.2996L189.456 30.0807L191.362 39.2996H186.137ZM167.688 54.7542H165.127V57.156H167.992V57.8781H164.264V51.2149H167.845V51.937H165.127V54.0422H167.688L167.688 54.7542ZM169.315 50.8594H170.178V57.8778H169.315V50.8594ZM172.355 55.6436C172.375 56.8204 173.111 57.3046 173.983 57.3046C174.602 57.3046 174.984 57.1959 175.299 57.0578L175.455 57.6807C175.151 57.8189 174.622 57.9868 173.866 57.9868C172.404 57.9868 171.532 57.0083 171.532 55.5647C171.532 54.1218 172.375 52.9944 173.758 52.9944C175.318 52.9944 175.72 54.3591 175.72 55.2387C175.72 55.4164 175.71 55.5448 175.69 55.6439L172.355 55.6436ZM174.886 55.021C174.896 54.4776 174.661 53.6173 173.689 53.6173C172.806 53.6173 172.433 54.418 172.365 55.021H174.886ZM180.417 57.7099C180.192 57.8189 179.691 57.9871 179.054 57.9871C177.622 57.9871 176.69 57.0083 176.69 55.5451C176.69 54.072 177.69 52.9947 179.24 52.9947C179.75 52.9947 180.201 53.1227 180.437 53.2517L180.241 53.9139C180.034 53.8052 179.711 53.6861 179.24 53.6861C178.151 53.6861 177.563 54.5068 177.563 55.496C177.563 56.6028 178.269 57.285 179.211 57.285C179.701 57.285 180.025 57.1665 180.27 57.0578L180.417 57.7099ZM182.839 51.9465V53.0932H184.075V53.7552H182.839V56.3357C182.839 56.9294 183.006 57.265 183.487 57.265C183.722 57.265 183.859 57.2457 183.987 57.2054L184.026 57.8686C183.859 57.9275 183.595 57.9868 183.261 57.9868C182.859 57.9868 182.535 57.8483 182.329 57.6214C182.094 57.354 181.995 56.9294 181.995 56.3657V53.7552H181.259V53.0932H181.995V52.2035L182.839 51.9465ZM185.281 54.5863C185.281 54.0226 185.27 53.5384 185.241 53.0932H185.997L186.036 54.0419H186.065C186.281 53.4 186.811 52.9944 187.389 52.9944C187.478 52.9944 187.547 53.0045 187.625 53.014V53.835C187.537 53.8147 187.449 53.8147 187.33 53.8147C186.723 53.8147 186.291 54.2694 186.173 54.9225C186.153 55.0566 186.143 55.1921 186.144 55.3277V57.8784H185.281V54.5863ZM192.932 55.4459C192.932 57.2156 191.705 57.9868 190.567 57.9868C189.291 57.9868 188.291 57.0375 188.291 55.5254C188.291 53.9336 189.341 52.9947 190.646 52.9947C192.009 52.9947 192.932 53.9922 192.932 55.4459ZM189.174 55.496C189.174 56.5438 189.762 57.335 190.606 57.335C191.431 57.335 192.048 56.5533 192.048 55.476C192.048 54.6655 191.646 53.6468 190.626 53.6468C189.616 53.6468 189.174 54.5964 189.174 55.496ZM194.254 54.3886C194.254 53.8847 194.244 53.489 194.215 53.0939H194.98L195.029 53.8847H195.049C195.284 53.4396 195.834 52.995 196.619 52.995C197.275 52.995 198.296 53.3904 198.296 55.0308V57.8784H197.433V55.1202C197.433 54.3496 197.148 53.7064 196.334 53.7064C195.775 53.7064 195.333 54.1119 195.177 54.5961C195.137 54.7051 195.118 54.8531 195.118 55.0017V57.8784H194.254V54.3886Z" fill="#1A1F71"/>
</g>
<g clip-path="url(#clip2_19_323)">
<path d="M256.601 25.7242C255.023 23.8836 252.169 23.0945 248.519 23.0945H237.925C237.564 23.0944 237.214 23.2262 236.94 23.4662C236.665 23.7061 236.483 24.0384 236.427 24.4034L232.015 53.0254C231.928 53.5898 232.355 54.1009 232.914 54.1009H239.454L241.097 43.442L241.046 43.7758C241.163 43.0223 241.793 42.4666 242.539 42.4666H245.647C251.752 42.4666 256.533 39.9295 257.93 32.59C257.971 32.373 258.007 32.1617 258.038 31.9553C257.862 31.8598 257.862 31.8598 258.038 31.9553C258.454 29.2425 258.035 27.396 256.601 25.7242Z" fill="#27346A"/>
<path d="M243.6 30.9781C243.778 30.8908 243.974 30.8457 244.172 30.8459H252.478C253.461 30.8459 254.378 30.9114 255.217 31.0494C255.451 31.0877 255.685 31.1334 255.917 31.1864C256.245 31.2606 256.57 31.3514 256.89 31.4584C257.302 31.5993 257.686 31.7632 258.038 31.9553C258.454 29.2415 258.035 27.396 256.601 25.7242C255.022 23.8836 252.169 23.0945 248.519 23.0945H237.924C237.178 23.0945 236.543 23.6501 236.427 24.4034L232.015 53.0243C231.928 53.5897 232.355 54.1001 232.913 54.1001H239.454L242.862 31.991C242.896 31.7737 242.98 31.5679 243.109 31.3915C243.237 31.2151 243.406 31.0732 243.6 30.9781Z" fill="#27346A"/>
<path d="M257.93 32.5901C256.533 39.9285 251.753 42.4667 245.647 42.4667H242.538C241.792 42.4667 241.162 43.0224 241.046 43.7758L239.003 57.0289C238.926 57.5228 239.3 57.9704 239.788 57.9704H245.302C245.617 57.9703 245.923 57.855 246.163 57.6451C246.403 57.4352 246.562 57.1445 246.611 56.8254L246.665 56.538L247.704 49.8003L247.771 49.428C247.821 49.1089 247.98 48.8182 248.22 48.6083C248.46 48.3984 248.765 48.2831 249.081 48.2829H249.906C255.247 48.2829 259.429 46.0631 260.651 39.643C261.161 36.9601 260.897 34.7201 259.548 33.1467C259.139 32.6702 258.63 32.2766 258.038 31.9553C258.006 32.1628 257.971 32.373 257.93 32.5901Z" fill="#2790C3"/>
<path d="M256.577 31.3592C256.359 31.2942 256.139 31.2366 255.918 31.1866C255.686 31.1344 255.452 31.089 255.218 31.0505C254.379 30.9115 253.462 30.8459 252.478 30.8459H244.173C243.975 30.8456 243.779 30.8911 243.601 30.9791C243.406 31.0739 243.238 31.2157 243.109 31.3922C242.981 31.5687 242.896 31.7746 242.863 31.992L241.098 43.4421L241.047 43.7759C241.163 43.0225 241.793 42.4668 242.539 42.4668H245.648C251.753 42.4668 256.534 39.9296 257.931 32.5902C257.972 32.3731 258.007 32.1627 258.039 31.9554C257.686 31.7646 257.303 31.5993 256.891 31.4595C256.786 31.4242 256.682 31.3908 256.577 31.3592" fill="#1F264F"/>
</g>
<defs>
<clipPath id="clip0_19_323">
<rect width="57" height="45" fill="white" transform="translate(31 18)"/>
</clipPath>
<clipPath id="clip1_19_323">
<rect width="78" height="35" fill="white" transform="translate(121 23)"/>
</clipPath>
<clipPath id="clip2_19_323">
<rect width="29" height="35" fill="white" transform="translate(232 23)"/>
</clipPath>
</defs>
</svg>
